P3
3 2
255
109  53  35
116  116 94
52  72  49
40  41  95
43  124  53
58  34  60