<?xml version="1.0" encoding="UTF-8" standalone="no"?>
<!-- Created with Inkscape (http://www.inkscape.org/) -->

<svg
   xmlns:dc="http://purl.org/dc/elements/1.1/"
   xmlns:cc="http://creativecommons.org/ns#"
   xmlns:rdf="http://www.w3.org/1999/02/22-rdf-syntax-ns#"
   xmlns:svg="http://www.w3.org/2000/svg"
   xmlns="http://www.w3.org/2000/svg"
   xmlns:sodipodi="http://sodipodi.sourceforge.net/DTD/sodipodi-0.dtd"
   xmlns:inkscape="http://www.inkscape.org/namespaces/inkscape"
   width="210mm"
   height="297mm"
   viewBox="0 0 210 297"
   version="1.1"
   id="svg8"
   sodipodi:docname="memory_3_pointer_to_char_b.svg"
   inkscape:version="0.92.4 (5da689c313, 2019-01-14)"
   inkscape:export-filename="C:\Users\vova\workspace\latex\cs_mipt_faki\term1\seminar04_pointer_and_struct\images\memory_3_pointer_to_char_b.png"
   inkscape:export-xdpi="300"
   inkscape:export-ydpi="300">
  <defs
     id="defs2">
    <marker
       inkscape:stockid="TriangleOutM"
       orient="auto"
       refY="0.0"
       refX="0.0"
       id="TriangleOutM"
       style="overflow:visible"
       inkscape:isstock="true">
      <path
         id="path1352"
         d="M 5.77,0.0 L -2.88,5.0 L -2.88,-5.0 L 5.77,0.0 z "
         style="fill-rule:evenodd;stroke:#000000;stroke-width:1pt;stroke-opacity:1;fill:#000000;fill-opacity:1"
         transform="scale(0.4)" />
    </marker>
    <marker
       style="overflow:visible;"
       id="Arrow1Mend"
       refX="0.0"
       refY="0.0"
       orient="auto"
       inkscape:stockid="Arrow1Mend">
      <path
         transform="scale(0.4) rotate(180) translate(10,0)"
         style="fill-rule:evenodd;stroke:#000000;stroke-width:1.0pt;"
         d="M 0.0,0.0 L 5.0,-5.0 L -12.5,0.0 L 5.0,5.0 L 0.0,0.0 z "
         id="path3794" />
    </marker>
    <marker
       style="overflow:visible"
       id="Arrow1Mstart"
       refX="0.0"
       refY="0.0"
       orient="auto"
       inkscape:stockid="Arrow1Mstart">
      <path
         transform="scale(0.4) translate(10,0)"
         style="fill-rule:evenodd;stroke:#000000;stroke-width:1.0pt"
         d="M 0.0,0.0 L 5.0,-5.0 L -12.5,0.0 L 5.0,5.0 L 0.0,0.0 z "
         id="path3791" />
    </marker>
    <marker
       style="overflow:visible"
       id="DiamondSend"
       refX="0.0"
       refY="0.0"
       orient="auto"
       inkscape:stockid="DiamondSend">
      <path
         transform="scale(0.2) translate(-6,0)"
         style="fill-rule:evenodd;stroke:#000000;stroke-width:1.0pt"
         d="M 0,-7.0710768 L -7.0710894,0 L 0,7.0710589 L 7.0710462,0 L 0,-7.0710768 z "
         id="path3888" />
    </marker>
    <marker
       style="overflow:visible;"
       id="Arrow2Lend"
       refX="0.0"
       refY="0.0"
       orient="auto"
       inkscape:stockid="Arrow2Lend">
      <path
         transform="scale(1.1) rotate(180) translate(1,0)"
         d="M 8.7185878,4.0337352 L -2.2072895,0.016013256 L 8.7185884,-4.0017078 C 6.9730900,-1.6296469 6.9831476,1.6157441 8.7185878,4.0337352 z "
         style="fill-rule:evenodd;stroke-width:0.62500000;stroke-linejoin:round;"
         id="path3806" />
    </marker>
    <marker
       style="overflow:visible;"
       id="Arrow1Lend"
       refX="0.0"
       refY="0.0"
       orient="auto"
       inkscape:stockid="Arrow1Lend">
      <path
         transform="scale(0.8) rotate(180) translate(12.5,0)"
         style="fill-rule:evenodd;stroke:#000000;stroke-width:1.0pt;"
         d="M 0.0,0.0 L 5.0,-5.0 L -12.5,0.0 L 5.0,5.0 L 0.0,0.0 z "
         id="path3788" />
    </marker>
    <marker
       style="overflow:visible"
       id="Arrow1Mend-8"
       refX="0"
       refY="0"
       orient="auto"
       inkscape:stockid="Arrow1Mend">
      <path
         transform="matrix(-0.4,0,0,-0.4,-4,0)"
         style="fill-rule:evenodd;stroke:#000000;stroke-width:1pt"
         d="M 0,0 5,-5 -12.5,0 5,5 0,0 z"
         id="path3794-0"
         inkscape:connector-curvature="0" />
    </marker>
    <marker
       style="overflow:visible"
       id="Arrow1Mend-8-8"
       refX="0"
       refY="0"
       orient="auto"
       inkscape:stockid="Arrow1Mend">
      <path
         transform="matrix(-0.4,0,0,-0.4,-4,0)"
         style="fill-rule:evenodd;stroke:#000000;stroke-width:1pt"
         d="M 0,0 5,-5 -12.5,0 5,5 0,0 z"
         id="path3794-0-1"
         inkscape:connector-curvature="0" />
    </marker>
    <marker
       inkscape:stockid="TriangleOutM"
       orient="auto"
       refY="0"
       refX="0"
       id="TriangleOutM-2"
       style="overflow:visible"
       inkscape:isstock="true">
      <path
         inkscape:connector-curvature="0"
         id="path1352-6"
         d="M 5.77,0 -2.88,5 V -5 Z"
         style="fill:#000000;fill-opacity:1;fill-rule:evenodd;stroke:#000000;stroke-width:1.00000003pt;stroke-opacity:1"
         transform="scale(0.4)" />
    </marker>
    <marker
       inkscape:stockid="TriangleOutM"
       orient="auto"
       refY="0"
       refX="0"
       id="TriangleOutM-8"
       style="overflow:visible"
       inkscape:isstock="true">
      <path
         inkscape:connector-curvature="0"
         id="path1352-1"
         d="M 5.77,0 -2.88,5 V -5 Z"
         style="fill:#000000;fill-opacity:1;fill-rule:evenodd;stroke:#000000;stroke-width:1.00000003pt;stroke-opacity:1"
         transform="scale(0.4)" />
    </marker>
    <marker
       inkscape:stockid="TriangleOutM"
       orient="auto"
       refY="0"
       refX="0"
       id="TriangleOutM-8-9"
       style="overflow:visible"
       inkscape:isstock="true">
      <path
         inkscape:connector-curvature="0"
         id="path1352-1-6"
         d="M 5.77,0 -2.88,5 V -5 Z"
         style="fill:#000000;fill-opacity:1;fill-rule:evenodd;stroke:#000000;stroke-width:1.00000003pt;stroke-opacity:1"
         transform="scale(0.4)" />
    </marker>
    <marker
       inkscape:stockid="TriangleOutM"
       orient="auto"
       refY="0"
       refX="0"
       id="TriangleOutM-8-9-0"
       style="overflow:visible"
       inkscape:isstock="true">
      <path
         inkscape:connector-curvature="0"
         id="path1352-1-6-9"
         d="M 5.77,0 -2.88,5 V -5 Z"
         style="fill:#000000;fill-opacity:1;fill-rule:evenodd;stroke:#000000;stroke-width:1.00000003pt;stroke-opacity:1"
         transform="scale(0.4)" />
    </marker>
    <marker
       inkscape:stockid="TriangleOutM"
       orient="auto"
       refY="0"
       refX="0"
       id="TriangleOutM-8-9-02"
       style="overflow:visible"
       inkscape:isstock="true">
      <path
         inkscape:connector-curvature="0"
         id="path1352-1-6-3"
         d="M 5.77,0 -2.88,5 V -5 Z"
         style="fill:#000000;fill-opacity:1;fill-rule:evenodd;stroke:#000000;stroke-width:1.00000003pt;stroke-opacity:1"
         transform="scale(0.4)" />
    </marker>
    <marker
       inkscape:stockid="TriangleOutM"
       orient="auto"
       refY="0"
       refX="0"
       id="TriangleOutM-8-9-08"
       style="overflow:visible"
       inkscape:isstock="true">
      <path
         inkscape:connector-curvature="0"
         id="path1352-1-6-6"
         d="M 5.77,0 -2.88,5 V -5 Z"
         style="fill:#000000;fill-opacity:1;fill-rule:evenodd;stroke:#000000;stroke-width:1.00000003pt;stroke-opacity:1"
         transform="scale(0.4)" />
    </marker>
  </defs>
  <sodipodi:namedview
     id="base"
     pagecolor="#ffffff"
     bordercolor="#666666"
     borderopacity="1.0"
     inkscape:pageopacity="0.0"
     inkscape:pageshadow="2"
     inkscape:zoom="2.8"
     inkscape:cx="409.31495"
     inkscape:cy="876.96496"
     inkscape:document-units="mm"
     inkscape:current-layer="layer1-1"
     showgrid="false"
     showguides="false"
     inkscape:window-width="2560"
     inkscape:window-height="1358"
     inkscape:window-x="-9"
     inkscape:window-y="-9"
     inkscape:window-maximized="1" />
  <metadata
     id="metadata5">
    <rdf:RDF>
      <cc:Work
         rdf:about="">
        <dc:format>image/svg+xml</dc:format>
        <dc:type
           rdf:resource="http://purl.org/dc/dcmitype/StillImage" />
        <dc:title />
      </cc:Work>
    </rdf:RDF>
  </metadata>
  <g
     inkscape:label="Layer 1"
     inkscape:groupmode="layer"
     id="layer1">
    <g
       id="layer1-1"
       inkscape:label="Layer 1"
       transform="matrix(0.26458333,0,0,0.26458333,-7.7999434,-36.319622)">
      <rect
         inkscape:export-ydpi="300"
         inkscape:export-xdpi="300"
         ry="0.3530401"
         y="340.24463"
         x="163.10123"
         height="22.184927"
         width="19.415031"
         id="rect3094-9-3-3-4"
         style="fill:#afdde9;fill-opacity:1;stroke:#000000;stroke-width:1.3933742;stroke-miterlimit:4;stroke-dasharray:none;stroke-dashoffset:0" />
      <text
         inkscape:export-ydpi="300"
         inkscape:export-xdpi="300"
         id="text3995"
         y="354.09592"
         x="123.69919"
         style="font-style:normal;font-weight:normal;font-size:13.2281332px;line-height:0%;font-family:sans-serif;letter-spacing:0px;word-spacing:0px;fill:#000000;fill-opacity:1;stroke:none;stroke-width:1.10234451"
         xml:space="preserve"><tspan
           style="font-size:39.68440247px;line-height:1.25;font-family:sans-serif;stroke-width:1.10234451"
           y="354.09592"
           x="123.69919"
           id="tspan3997"
           sodipodi:role="line">...</tspan></text>
      <text
         inkscape:export-ydpi="300"
         inkscape:export-xdpi="300"
         id="text3995-2"
         y="351.89999"
         x="693.66394"
         style="font-style:normal;font-weight:normal;font-size:13.2281332px;line-height:0%;font-family:sans-serif;letter-spacing:0px;word-spacing:0px;fill:#000000;fill-opacity:1;stroke:none;stroke-width:1.10234451"
         xml:space="preserve"><tspan
           style="font-size:39.68440247px;line-height:1.25;font-family:sans-serif;stroke-width:1.10234451"
           y="351.89999"
           x="693.66394"
           id="tspan3997-4"
           sodipodi:role="line">...</tspan></text>
      <rect
         inkscape:export-ydpi="300"
         inkscape:export-xdpi="300"
         ry="0.3530401"
         y="340.24463"
         x="184.37782"
         height="22.184927"
         width="19.415031"
         id="rect3094-9-3-3-4-9"
         style="fill:#afdde9;fill-opacity:1;stroke:#000000;stroke-width:1.3933742;stroke-miterlimit:4;stroke-dasharray:none;stroke-dashoffset:0" />
      <rect
         inkscape:export-ydpi="300"
         inkscape:export-xdpi="300"
         ry="0.3530401"
         y="340.24463"
         x="205.6544"
         height="22.184927"
         width="19.415031"
         id="rect3094-9-3-3-4-6"
         style="fill:#afdde9;fill-opacity:1;stroke:#000000;stroke-width:1.3933742;stroke-miterlimit:4;stroke-dasharray:none;stroke-dashoffset:0" />
      <rect
         inkscape:export-ydpi="300"
         inkscape:export-xdpi="300"
         ry="0.3530401"
         y="340.24463"
         x="226.93102"
         height="22.184927"
         width="19.415031"
         id="rect3094-9-3-3-4-9-6"
         style="fill:#afdde9;fill-opacity:1;stroke:#000000;stroke-width:1.3933742;stroke-miterlimit:4;stroke-dasharray:none;stroke-dashoffset:0" />
      <rect
         inkscape:export-ydpi="300"
         inkscape:export-xdpi="300"
         ry="0.3530401"
         y="340.24463"
         x="503.66141"
         height="22.184927"
         width="19.415031"
         id="rect3094-9-3-3-4-4"
         style="fill:#fff6d5;fill-opacity:1;stroke:#000000;stroke-width:1.3933742;stroke-miterlimit:4;stroke-dasharray:none;stroke-dashoffset:0" />
      <rect
         inkscape:export-ydpi="300"
         inkscape:export-xdpi="300"
         ry="0.3530401"
         y="340.24463"
         x="524.93805"
         height="22.184927"
         width="19.415031"
         id="rect3094-9-3-3-4-9-9"
         style="fill:#87deaa;fill-opacity:1;stroke:#000000;stroke-width:1.3933742;stroke-miterlimit:4;stroke-dasharray:none;stroke-dashoffset:0" />
      <rect
         inkscape:export-ydpi="300"
         inkscape:export-xdpi="300"
         ry="0.3530401"
         y="340.24463"
         x="546.21454"
         height="22.184927"
         width="19.415031"
         id="rect3094-9-3-3-4-6-7"
         style="fill:#87deaa;fill-opacity:1;stroke:#000000;stroke-width:1.3933742;stroke-miterlimit:4;stroke-dasharray:none;stroke-dashoffset:0" />
      <rect
         inkscape:export-ydpi="300"
         inkscape:export-xdpi="300"
         ry="0.3530401"
         y="340.24463"
         x="567.49121"
         height="22.184927"
         width="19.415031"
         id="rect3094-9-3-3-4-9-6-0"
         style="fill:#87deaa;fill-opacity:1;stroke:#000000;stroke-width:1.3933742;stroke-miterlimit:4;stroke-dasharray:none;stroke-dashoffset:0" />
      <rect
         inkscape:export-ydpi="300"
         inkscape:export-xdpi="300"
         ry="0.3530401"
         y="340.24463"
         x="248.29472"
         height="22.184927"
         width="19.415031"
         id="rect3094-9-3-3-4-3"
         style="fill:#cccccc;fill-opacity:1;stroke:#000000;stroke-width:1.3933742;stroke-miterlimit:4;stroke-dasharray:none;stroke-dashoffset:0" />
      <rect
         inkscape:export-ydpi="300"
         inkscape:export-xdpi="300"
         ry="0.3530401"
         y="340.24463"
         x="269.57132"
         height="22.184927"
         width="19.415031"
         id="rect3094-9-3-3-4-9-1"
         style="fill:#cccccc;fill-opacity:1;stroke:#000000;stroke-width:1.3933742;stroke-miterlimit:4;stroke-dasharray:none;stroke-dashoffset:0" />
      <rect
         inkscape:export-ydpi="300"
         inkscape:export-xdpi="300"
         ry="0.3530401"
         y="340.24463"
         x="290.84787"
         height="22.184927"
         width="19.415031"
         id="rect3094-9-3-3-4-6-1"
         style="fill:#cccccc;fill-opacity:1;stroke:#000000;stroke-width:1.3933742;stroke-miterlimit:4;stroke-dasharray:none;stroke-dashoffset:0" />
      <rect
         inkscape:export-ydpi="300"
         inkscape:export-xdpi="300"
         ry="0.3530401"
         y="340.24463"
         x="312.12454"
         height="22.184927"
         width="19.415031"
         id="rect3094-9-3-3-4-9-6-3"
         style="fill:#cccccc;fill-opacity:1;stroke:#000000;stroke-width:1.3933742;stroke-miterlimit:4;stroke-dasharray:none;stroke-dashoffset:0" />
      <rect
         inkscape:export-ydpi="300"
         inkscape:export-xdpi="300"
         ry="0.3530401"
         y="340.24463"
         x="333.40109"
         height="22.184927"
         width="19.415031"
         id="rect3094-9-3-3-4-4-6"
         style="fill:#cccccc;fill-opacity:1;stroke:#000000;stroke-width:1.3933742;stroke-miterlimit:4;stroke-dasharray:none;stroke-dashoffset:0" />
      <rect
         inkscape:export-ydpi="300"
         inkscape:export-xdpi="300"
         ry="0.3530401"
         y="340.24463"
         x="354.67764"
         height="22.184927"
         width="19.415031"
         id="rect3094-9-3-3-4-9-9-3"
         style="fill:#cccccc;fill-opacity:1;stroke:#000000;stroke-width:1.3933742;stroke-miterlimit:4;stroke-dasharray:none;stroke-dashoffset:0" />
      <rect
         inkscape:export-ydpi="300"
         inkscape:export-xdpi="300"
         ry="0.3530401"
         y="340.24463"
         x="375.95422"
         height="22.184927"
         width="19.415031"
         id="rect3094-9-3-3-4-6-7-6"
         style="fill:#cccccc;fill-opacity:1;stroke:#000000;stroke-width:1.3933742;stroke-miterlimit:4;stroke-dasharray:none;stroke-dashoffset:0" />
      <rect
         inkscape:export-ydpi="300"
         inkscape:export-xdpi="300"
         ry="0.3530401"
         y="340.24463"
         x="397.23083"
         height="22.184927"
         width="19.415031"
         id="rect3094-9-3-3-4-9-6-0-3"
         style="fill:#cccccc;fill-opacity:1;stroke:#000000;stroke-width:1.3933742;stroke-miterlimit:4;stroke-dasharray:none;stroke-dashoffset:0" />
      <rect
         inkscape:export-ydpi="300"
         inkscape:export-xdpi="300"
         ry="0.3530401"
         y="340.24463"
         x="418.56512"
         height="22.184927"
         width="19.415031"
         id="rect3094-9-3-3-4-65"
         style="fill:#afdde9;fill-opacity:1;stroke:#000000;stroke-width:1.3933742;stroke-miterlimit:4;stroke-dasharray:none;stroke-dashoffset:0" />
      <rect
         inkscape:export-ydpi="300"
         inkscape:export-xdpi="300"
         ry="0.3530401"
         y="340.24463"
         x="439.84174"
         height="22.184927"
         width="19.415031"
         id="rect3094-9-3-3-4-9-7"
         style="fill:#afdde9;fill-opacity:1;stroke:#000000;stroke-width:1.3933742;stroke-miterlimit:4;stroke-dasharray:none;stroke-dashoffset:0" />
      <rect
         inkscape:export-ydpi="300"
         inkscape:export-xdpi="300"
         ry="0.3530401"
         y="340.24463"
         x="461.11835"
         height="22.184927"
         width="19.415031"
         id="rect3094-9-3-3-4-6-0"
         style="fill:#afdde9;fill-opacity:1;stroke:#000000;stroke-width:1.3933742;stroke-miterlimit:4;stroke-dasharray:none;stroke-dashoffset:0" />
      <rect
         inkscape:export-ydpi="300"
         inkscape:export-xdpi="300"
         ry="0.3530401"
         y="340.24463"
         x="482.3949"
         height="22.184927"
         width="19.415031"
         id="rect3094-9-3-3-4-9-6-1"
         style="fill:#afdde9;fill-opacity:1;stroke:#000000;stroke-width:1.3933742;stroke-miterlimit:4;stroke-dasharray:none;stroke-dashoffset:0" />
      <rect
         inkscape:export-ydpi="300"
         inkscape:export-xdpi="300"
         ry="0.3530401"
         y="340.24463"
         x="588.633"
         height="22.184927"
         width="19.415031"
         id="rect3094-9-3-3-4-4-4"
         style="fill:#afdde9;fill-opacity:1;stroke:#000000;stroke-width:1.3933742;stroke-miterlimit:4;stroke-dasharray:none;stroke-dashoffset:0" />
      <rect
         inkscape:export-ydpi="300"
         inkscape:export-xdpi="300"
         ry="0.3530401"
         y="340.24463"
         x="609.90955"
         height="22.184927"
         width="19.415031"
         id="rect3094-9-3-3-4-9-9-6"
         style="fill:#afdde9;fill-opacity:1;stroke:#000000;stroke-width:1.3933742;stroke-miterlimit:4;stroke-dasharray:none;stroke-dashoffset:0" />
      <rect
         inkscape:export-ydpi="300"
         inkscape:export-xdpi="300"
         ry="0.3530401"
         y="340.24463"
         x="631.18616"
         height="22.184927"
         width="19.415031"
         id="rect3094-9-3-3-4-6-7-4"
         style="fill:#afdde9;fill-opacity:1;stroke:#000000;stroke-width:1.3933742;stroke-miterlimit:4;stroke-dasharray:none;stroke-dashoffset:0" />
      <rect
         inkscape:export-ydpi="300"
         inkscape:export-xdpi="300"
         ry="0.3530401"
         y="340.24463"
         x="652.46277"
         height="22.184927"
         width="19.415031"
         id="rect3094-9-3-3-4-9-6-0-35"
         style="fill:#afdde9;fill-opacity:1;stroke:#000000;stroke-width:1.3933742;stroke-miterlimit:4;stroke-dasharray:none;stroke-dashoffset:0" />
      <rect
         inkscape:export-ydpi="300"
         inkscape:export-xdpi="300"
         ry="0.3530401"
         y="340.24463"
         x="673.73932"
         height="22.184927"
         width="19.415031"
         id="rect3094-9-3-3-4-3-3"
         style="fill:#afdde9;fill-opacity:1;stroke:#000000;stroke-width:1.3933742;stroke-miterlimit:4;stroke-dasharray:none;stroke-dashoffset:0" />
      <text
         inkscape:export-ydpi="300"
         inkscape:export-xdpi="300"
         id="text3340"
         y="330.87988"
         x="503.96722"
         style="font-style:normal;font-weight:normal;font-size:13.2281332px;line-height:0%;font-family:sans-serif;letter-spacing:0px;word-spacing:0px;fill:#000000;fill-opacity:1;stroke:none;stroke-width:1.10234451"
         xml:space="preserve"><tspan
           style="font-style:normal;font-variant:normal;font-weight:normal;font-stretch:normal;font-size:23.51668167px;line-height:1.25;font-family:Consolas;-inkscape-font-specification:Consolas;stroke-width:1.10234451"
           y="330.87988"
           x="503.96722"
           id="tspan3342"
           sodipodi:role="line">a</tspan></text>
      <path
         inkscape:export-ydpi="300"
         inkscape:export-xdpi="300"
         inkscape:connector-curvature="0"
         id="path4266"
         d="m 249.36742,351.42667 0.29237,-10.4394 8.32838,-0.16261 8.32838,-0.16261 v 10.602 10.60202 h -8.62073 -8.62078 z"
         style="fill:#cccccc;fill-opacity:1;stroke-width:1.3933742;stroke-miterlimit:4;stroke-dasharray:none" />
      <path
         inkscape:export-ydpi="300"
         inkscape:export-xdpi="300"
         inkscape:connector-curvature="0"
         id="path4268"
         d="m 569.17747,351.28748 v -10.5786 h 8.05975 8.05972 v 10.5786 10.57859 h -8.05972 -8.05975 z"
         style="fill:#87deaa;fill-opacity:1;stroke-width:1.3933742;stroke-miterlimit:4;stroke-dasharray:none" />
      <path
         inkscape:export-ydpi="300"
         inkscape:export-xdpi="300"
         inkscape:connector-curvature="0"
         id="path4270"
         d="m 547.68488,351.28748 v -10.5786 h 8.05972 8.05973 v 10.5786 10.57859 h -8.05973 -8.05972 z"
         style="fill:#87deaa;fill-opacity:1;stroke-width:1.3933742;stroke-miterlimit:4;stroke-dasharray:none" />
      <path
         inkscape:export-ydpi="300"
         inkscape:export-xdpi="300"
         inkscape:connector-curvature="0"
         id="path4272"
         d="m 526.19228,351.28748 v -10.5786 h 8.59703 8.59705 v 10.5786 10.57859 h -8.59705 -8.59703 z"
         style="fill:#87deaa;fill-opacity:1;stroke-width:1.3933742;stroke-miterlimit:4;stroke-dasharray:none" />
      <path
         inkscape:export-ydpi="300"
         inkscape:export-xdpi="300"
         inkscape:connector-curvature="0"
         id="path4274"
         d="m 547.67579,351.28646 v -10.54379 h 8.05973 8.05972 v 10.54379 10.5438 h -8.05972 -8.05973 z"
         style="fill:#87deaa;fill-opacity:1;stroke-width:1.3933742;stroke-miterlimit:4;stroke-dasharray:none" />
      <path
         inkscape:export-ydpi="300"
         inkscape:export-xdpi="300"
         inkscape:connector-curvature="0"
         id="path4276"
         d="m 547.13847,351.32125 c 0,-10.53218 10e-4,-10.57858 0.26866,-10.57858 0.2675,0 0.26866,0.0465 0.26866,10.57858 0,10.5322 -10e-4,10.5786 -0.26866,10.5786 -0.26746,0 -0.26866,-0.0464 -0.26866,-10.5786 z"
         style="fill:#87deaa;fill-opacity:1;stroke-width:1.3933742;stroke-miterlimit:4;stroke-dasharray:none" />
      <path
         inkscape:export-ydpi="300"
         inkscape:export-xdpi="300"
         inkscape:connector-curvature="0"
         id="path4278"
         d="m 563.79524,351.32125 v -10.57858 h 0.40299 0.40299 v 10.57858 10.5786 h -0.40299 -0.40299 z"
         style="fill:#87deaa;fill-opacity:1;stroke-width:1.3933742;stroke-miterlimit:4;stroke-dasharray:none" />
      <path
         inkscape:export-ydpi="300"
         inkscape:export-xdpi="300"
         inkscape:connector-curvature="0"
         id="path4280"
         d="m 526.1832,351.28646 v -10.54379 h 8.59705 8.59704 v 10.54379 10.5438 h -8.59704 -8.59705 z"
         style="fill:#afdde9;fill-opacity:1;stroke-width:1.3933742;stroke-miterlimit:4;stroke-dasharray:none" />
      <path
         inkscape:export-ydpi="300"
         inkscape:export-xdpi="300"
         inkscape:connector-curvature="0"
         id="path4282"
         d="m 525.91455,351.32125 c 0,-7.00599 0.0453,-10.57858 0.13426,-10.57858 0.0889,0 0.13425,3.57259 0.13425,10.57858 0,7.00601 -0.0453,10.5786 -0.13425,10.5786 -0.089,0 -0.13426,-3.57259 -0.13426,-10.5786 z"
         style="fill:#87deaa;fill-opacity:1;stroke-width:1.3933742;stroke-miterlimit:4;stroke-dasharray:none" />
      <path
         inkscape:export-ydpi="300"
         inkscape:export-xdpi="300"
         inkscape:connector-curvature="0"
         id="path4284"
         d="m 555.77131,361.84766 -8.09113,-0.0185 -0.038,-1.86115 -0.038,-1.86115 -0.0312,1.86168 c -0.017,1.02394 -0.0819,1.8617 -0.14384,1.8617 -0.16191,0 -0.29047,-4.65461 -0.29047,-10.509 0,-5.82549 0.1285,-10.50899 0.28829,-10.50899 0.0607,0 0.1274,0.83776 0.14829,1.86169 l 0.038,1.8617 0.0312,-1.8965 0.0312,-1.89648 h 8.46273 8.46269 v 10.57858 10.57859 l -0.36941,-0.0169 c -0.20319,-0.009 -4.0104,-0.0251 -8.46049,-0.0354 z"
         style="fill:#afdde9;fill-opacity:1;stroke-width:1.3933742;stroke-miterlimit:4;stroke-dasharray:none" />
      <path
         inkscape:export-ydpi="300"
         inkscape:export-xdpi="300"
         inkscape:connector-curvature="0"
         id="path4286"
         d="m 568.49675,351.32125 v -10.57858 h 0.33583 0.33583 v 10.57858 10.5786 h -0.33583 -0.33583 z"
         style="fill:#87deaa;fill-opacity:1;stroke-width:1.3933742;stroke-miterlimit:4;stroke-dasharray:none" />
      <path
         inkscape:export-ydpi="300"
         inkscape:export-xdpi="300"
         inkscape:connector-curvature="0"
         id="path4288"
         d="m 568.49675,351.33037 v -10.5877 h 8.39555 8.39555 v 10.54379 10.5438 l -7.8918,7.6e-4 c -4.34052,4.1e-4 -8.11851,0.0201 -8.39556,0.0439 l -0.50374,0.0431 v -10.58768 z"
         style="fill:#87deaa;fill-opacity:1;stroke-width:1.3933742;stroke-miterlimit:4;stroke-dasharray:none" />
      <path
         inkscape:export-ydpi="300"
         inkscape:export-xdpi="300"
         inkscape:connector-curvature="0"
         id="path4290"
         d="m 585.28785,351.32125 v -10.57858 h 0.33583 0.33581 v 10.57858 10.5786 h -0.33581 -0.33583 z"
         style="fill:#87deaa;fill-opacity:1;stroke-width:1.3933742;stroke-miterlimit:4;stroke-dasharray:none" />
      <path
         inkscape:export-ydpi="300"
         inkscape:export-xdpi="300"
         inkscape:connector-curvature="0"
         id="path4292"
         d="m 568.49675,351.30385 v -10.56118 h 8.73139 8.73135 v 10.56118 10.56121 h -8.73135 -8.73139 z"
         style="fill:#afdde9;fill-opacity:1;stroke-width:1.3933742;stroke-miterlimit:4;stroke-dasharray:none" />
      <path
         inkscape:export-ydpi="300"
         inkscape:export-xdpi="300"
         inkscape:connector-curvature="0"
         id="path4294"
         d="m 249.16144,360.35134 c 0.0458,-0.8134 0.18448,-5.48765 0.30783,-10.3872 0.12342,-4.89956 0.23486,-8.91616 0.2478,-8.92578 0.0273,-0.0204 4.85822,-0.12213 10.61278,-0.22356 2.21642,-0.0391 4.46811,-0.0865 5.00375,-0.1055 l 0.97388,-0.0345 v 10.5777 10.57771 h -8.61479 -8.61479 l 0.0836,-1.47892 z"
         style="fill:#cccccc;fill-opacity:1;stroke-width:1.3933742;stroke-miterlimit:4;stroke-dasharray:none" />
      <path
         inkscape:export-ydpi="300"
         inkscape:export-xdpi="300"
         inkscape:connector-curvature="0"
         id="path4296"
         d="m 249.1617,360.10776 c 0.0466,-0.94738 0.18468,-5.62162 0.30697,-10.38721 0.12233,-4.76559 0.23526,-8.67348 0.25103,-8.68421 0.015,-0.011 3.13491,-0.0797 6.93137,-0.15331 3.79646,-0.0737 7.52226,-0.14919 8.27955,-0.16799 l 1.37686,-0.0342 v 10.57472 10.5747 h -8.61521 -8.6152 l 0.0847,-1.7225 z"
         style="fill:#cccccc;fill-opacity:1;stroke-width:1.3933742;stroke-miterlimit:4;stroke-dasharray:none" />
      <path
         inkscape:export-ydpi="300"
         inkscape:export-xdpi="300"
         inkscape:connector-curvature="0"
         id="path4298"
         d="m 249.16178,359.82937 c 0.0474,-1.10048 0.18468,-5.77473 0.30527,-10.38721 0.12042,-4.61247 0.23549,-8.39632 0.25546,-8.40853 0.0192,-0.0122 3.07972,-0.0808 6.79944,-0.15234 3.71974,-0.0715 7.44317,-0.14783 8.27433,-0.16949 l 1.5112,-0.0394 v 10.57891 10.57891 h -8.61589 -8.61593 l 0.0862,-2.00089 z"
         style="fill:#cccccc;fill-opacity:1;stroke-width:1.3933742;stroke-miterlimit:4;stroke-dasharray:none" />
      <path
         inkscape:export-ydpi="300"
         inkscape:export-xdpi="300"
         inkscape:connector-curvature="0"
         id="path4300"
         d="m 249.16054,359.55098 c 0.0479,-1.25359 0.18511,-5.92783 0.30506,-10.38721 0.11972,-4.45935 0.23487,-8.11791 0.25555,-8.1301 0.0212,-0.0122 2.99033,-0.0806 6.59926,-0.15216 3.60893,-0.0714 7.3324,-0.14877 8.27437,-0.17177 l 1.7127,-0.0418 v 10.58115 10.58115 h -8.61701 -8.61701 l 0.0869,-2.27927 z"
         style="fill:#cccccc;fill-opacity:1;stroke-width:1.3933742;stroke-miterlimit:4;stroke-dasharray:none" />
      <path
         inkscape:export-ydpi="300"
         inkscape:export-xdpi="300"
         inkscape:connector-curvature="0"
         id="path4302"
         d="m 266.30748,351.32125 c 0,-9.35679 0.0232,-10.57858 0.20149,-10.57858 0.17829,0 0.20149,1.22179 0.20149,10.57858 0,9.3568 -0.0232,10.5786 -0.20149,10.5786 -0.1783,0 -0.20149,-1.2218 -0.20149,-10.5786 z"
         style="fill:#cccccc;fill-opacity:1;stroke-width:1.3933742;stroke-miterlimit:4;stroke-dasharray:none" />
      <path
         inkscape:export-ydpi="300"
         inkscape:export-xdpi="300"
         inkscape:connector-curvature="0"
         id="path4304"
         d="m 249.83309,346.04944 -0.0189,-4.69797 4.37031,0.0101 4.37032,0.0101 -4.15898,0.0874 c -2.28745,0.048 -4.18588,0.10131 -4.21872,0.11833 -0.0328,0.017 -0.11946,2.08797 -0.19223,4.60209 l -0.13244,4.57115 -0.019,-4.69798 z"
         style="fill:#cccccc;fill-opacity:1;stroke-width:1.23354411;stroke-miterlimit:4;stroke-dasharray:none" />
      <path
         inkscape:export-ydpi="300"
         inkscape:export-xdpi="300"
         inkscape:connector-curvature="0"
         id="path4306"
         d="m 249.11311,361.39528 c -1.7e-4,-0.23925 0.12384,-4.75203 0.27575,-10.02842 0.15191,-5.2764 0.25318,-9.72359 0.22524,-9.88263 -0.028,-0.15906 -0.0693,0.41547 -0.0922,1.27672 -0.0517,1.95423 -0.24527,1.53068 -0.26242,-0.57416 l -0.0123,-1.44412 1.57836,0.007 c 0.86811,0.003 1.91084,0.0307 2.31718,0.0597 0.66435,0.0477 0.58991,0.0552 -0.73882,0.0749 -0.81268,0.012 -1.20558,0.0345 -0.87312,0.0497 0.55034,0.0253 9.14115,-0.12769 13.13062,-0.23386 l 1.64554,-0.0437 0.0307,2.18325 0.0307,2.18325 0.0703,-2.12268 0.0701,-2.12269 0.10069,3.26505 c 0.12877,4.17309 0.12877,10.38441 0,14.55751 l -0.10069,3.26504 -0.0701,-2.12268 -0.0703,-2.12268 -0.0307,2.10528 -0.0307,2.10528 h -8.59704 -8.59704 l -2.9e-4,-0.43497 z m 1.37714,-20.42335 c -0.16617,-0.0166 -0.43822,-0.0166 -0.60447,0 -0.16615,0.0165 -0.0304,0.0303 0.30225,0.0303 0.33246,0 0.46846,-0.0136 0.30222,-0.0303 z"
         style="fill:#cccccc;fill-opacity:1;stroke-width:1.3933742;stroke-miterlimit:4;stroke-dasharray:none" />
      <path
         inkscape:export-ydpi="300"
         inkscape:export-xdpi="300"
         inkscape:connector-curvature="0"
         id="path4308"
         d="m 249.15663,359.2378 c 0.314,-9.4553 0.39935,-14.61702 0.24867,-15.04066 -0.0892,-0.25123 -0.15766,-1.09509 -0.15766,-1.94879 v -1.50568 h 1.5021 c 0.82614,0 2.03751,0.0356 2.69191,0.079 1.12997,0.0751 5.55529,0.0257 11.22022,-0.12517 l 1.64553,-0.0439 0.0293,1.45428 0.0293,1.45428 0.0715,-1.39192 c 0.0673,-1.31119 0.0773,-1.23047 0.17191,1.39192 0.12932,3.57949 0.12932,11.94043 0,15.51992 -0.0959,2.65811 -0.10384,2.71941 -0.17191,1.35711 l -0.0712,-1.42671 -0.0293,1.40931 -0.0294,1.40933 h -8.61848 -8.61848 l 0.0862,-2.59245 z m 0.4596,-17.05443 c -0.0249,-0.31392 -0.0451,-0.0384 -0.0449,0.61237 1.3e-4,0.65073 0.0213,0.90756 0.045,0.57075 0.0247,-0.33681 0.0246,-0.86921 -2.7e-4,-1.18312 z m 0.7397,-1.20841 c -0.0924,-0.0193 -0.24347,-0.0193 -0.33583,0 -0.0924,0.0193 -0.017,0.035 0.16788,0.035 0.18468,0 0.26027,-0.0158 0.16788,-0.035 z m 2.95929,-0.0744 c -0.31178,-0.0146 -0.8558,-0.0148 -1.20896,-3.8e-4 -0.35315,0.0144 -0.0981,0.0263 0.56686,0.0266 0.66492,2.1e-4 0.95386,-0.0115 0.6421,-0.0261 z"
         style="fill:#cccccc;fill-opacity:1;stroke-width:1.3933742;stroke-miterlimit:4;stroke-dasharray:none" />
      <path
         inkscape:export-ydpi="300"
         inkscape:export-xdpi="300"
         inkscape:connector-curvature="0"
         id="path4310"
         d="m 249.1117,361.25608 c -9.5e-4,-0.31578 0.0972,-4.06614 0.21836,-8.33412 0.16766,-5.9105 0.18404,-7.93412 0.0688,-8.4907 -0.0831,-0.40192 -0.15128,-1.39628 -0.15128,-2.20968 l 2e-4,-1.47891 h 1.63642 c 0.90004,0 2.15434,0.0344 2.78732,0.0764 0.8807,0.0584 2.44384,0.0502 6.65838,-0.0354 3.0291,-0.0615 5.61325,-0.11151 5.74256,-0.1112 0.21148,5.3e-4 0.23781,0.0999 0.26266,0.99233 l 0.0276,0.99174 0.0732,-0.93955 c 0.22964,-2.94998 0.3838,12.83558 0.1736,17.78177 -0.0847,1.99464 -0.11192,2.21324 -0.17338,1.39192 l -0.073,-0.97433 -0.0278,0.95694 -0.0276,0.95694 h -8.59704 -8.59704 l -0.001,-0.57417 z m 0.50108,-18.61597 c -0.0309,-0.10582 -0.057,-0.0357 -0.0578,0.15563 -0.001,0.19139 0.0243,0.27795 0.0563,0.19235 0.032,-0.0855 0.0327,-0.24219 0.001,-0.34798 z m 3.42974,-1.73778 c -0.16618,-0.0165 -0.43826,-0.0165 -0.6045,0 -0.16616,0.0167 -0.0304,0.0303 0.30226,0.0303 0.33247,0 0.46847,-0.0136 0.30224,-0.0303 z"
         style="fill:#cccccc;fill-opacity:1;stroke-width:1.3933742;stroke-miterlimit:4;stroke-dasharray:none" />
      <path
         inkscape:export-ydpi="300"
         inkscape:export-xdpi="300"
         inkscape:connector-curvature="0"
         id="path4312"
         d="m 249.16221,358.64623 c 0.34788,-12.31159 0.36389,-13.30082 0.22715,-14.04099 -0.0778,-0.42105 -0.14149,-1.46238 -0.14149,-2.31406 l -1.1e-4,-1.54851 1.71269,5.6e-4 c 0.942,3.2e-4 2.24599,0.0322 2.89783,0.0708 1.11661,0.0663 3.45283,0.0407 10.40072,-0.11412 l 2.04854,-0.0456 0.0259,0.75748 0.0259,0.75748 0.0796,-0.69595 c 0.13744,-1.20256 0.21064,1.54675 0.24415,9.15188 0.0304,6.87983 -0.0911,12.01478 -0.24892,10.54379 l -0.0747,-0.69595 -0.0259,0.67855 -0.0259,0.67856 h -8.61761 -8.61762 l 0.09,-3.18402 z"
         style="fill:#cccccc;fill-opacity:1;stroke-width:1.3933742;stroke-miterlimit:4;stroke-dasharray:none" />
      <path
         inkscape:export-ydpi="300"
         inkscape:export-xdpi="300"
         inkscape:connector-curvature="0"
         id="path4314"
         d="m 249.16736,358.26346 c 0.0517,-1.96174 0.14852,-5.58682 0.21518,-8.05574 0.0739,-2.72964 0.0728,-4.82989 -0.002,-5.3589 -0.0681,-0.47847 -0.12576,-1.59808 -0.12808,-2.48805 l -0.004,-1.6181 1.9142,0.004 c 1.05279,0.002 2.39775,0.0287 2.98881,0.0579 0.99431,0.049 4.09499,0.0165 9.83957,-0.10286 l 2.31718,-0.0482 0.0243,0.58343 0.0243,0.58345 0.0766,-0.52196 c 0.15425,-1.05221 0.2775,3.44396 0.2775,10.12622 -2e-5,6.6631 -0.12083,10.985 -0.2775,9.91743 l -0.0766,-0.52198 -0.0243,0.50457 -0.0243,0.50458 h -8.61701 -8.61701 l 0.0938,-3.56681 z"
         style="fill:#cccccc;fill-opacity:1;stroke-width:1.3933742;stroke-miterlimit:4;stroke-dasharray:none" />
      <path
         inkscape:export-ydpi="300"
         inkscape:export-xdpi="300"
         inkscape:connector-curvature="0"
         id="path4316"
         d="m 249.19994,357.21952 c 0.0631,-2.53591 0.10153,-7.28175 0.0849,-10.54631 l -0.0304,-5.93559 5.40326,0.0199 c 2.97181,0.011 6.8087,-0.005 8.52645,-0.0377 l 3.12314,-0.0577 0.022,0.44046 0.022,0.44046 0.0793,-0.38279 c 0.16787,-0.81007 0.27989,3.25733 0.27989,10.16102 0,6.90371 -0.1122,10.97111 -0.27989,10.16102 l -0.0793,-0.38277 -0.022,0.36537 -0.022,0.36539 h -8.61124 -8.61125 l 0.11495,-4.61074 z"
         style="fill:#cccccc;fill-opacity:1;stroke-width:1.3933742;stroke-miterlimit:4;stroke-dasharray:none" />
      <path
         inkscape:export-ydpi="300"
         inkscape:export-xdpi="300"
         inkscape:connector-curvature="0"
         id="path4318"
         d="m 266.58675,361.78966 c 0.007,-0.0812 0.0384,-0.0976 0.0812,-0.042 0.0389,0.0503 0.034,0.11028 -0.011,0.13339 -0.0446,0.0232 -0.0764,-0.018 -0.0706,-0.0914 z"
         style="fill:#cccccc;fill-opacity:1;stroke-width:1.3933742;stroke-miterlimit:4;stroke-dasharray:none" />
      <path
         inkscape:export-ydpi="300"
         inkscape:export-xdpi="300"
         inkscape:connector-curvature="0"
         id="path4320"
         d="m 249.18925,357.49789 c 0.0615,-2.38278 0.0964,-7.12902 0.0774,-10.54719 l -0.0341,-6.21486 5.88442,0.0147 c 3.23643,0.008 7.07827,-0.0101 8.53744,-0.0407 l 2.65299,-0.0554 0.0192,0.3746 0.0192,0.37461 0.0828,-0.31318 c 0.17787,-0.67363 0.27928,3.04874 0.27957,10.2716 2.8e-4,7.21032 -0.1,10.86919 -0.27957,10.18962 l -0.0828,-0.31317 -0.0192,0.29578 -0.0192,0.29579 h -8.61493 -8.61494 l 0.11166,-4.33237 z"
         style="fill:#cccccc;fill-opacity:1;stroke-width:1.3933742;stroke-miterlimit:4;stroke-dasharray:none" />
      <text
         inkscape:export-ydpi="300"
         inkscape:export-xdpi="300"
         id="text3340-2"
         y="329.47015"
         x="250.32144"
         style="font-style:normal;font-weight:normal;font-size:13.2281332px;line-height:0%;font-family:sans-serif;letter-spacing:0px;word-spacing:0px;fill:#000000;fill-opacity:1;stroke:none;stroke-width:1.10234451"
         xml:space="preserve"><tspan
           style="font-style:normal;font-variant:normal;font-weight:normal;font-stretch:normal;font-size:23.51668167px;line-height:1.25;font-family:Consolas;-inkscape-font-specification:Consolas;stroke-width:1.10234451"
           y="329.47015"
           x="250.32144"
           id="tspan3342-1"
           sodipodi:role="line">p</tspan></text>
      <text
         xml:space="preserve"
         style="font-style:normal;font-weight:normal;font-size:20.57709694px;line-height:1.25;font-family:sans-serif;letter-spacing:0px;word-spacing:0px;fill:#000000;fill-opacity:1;stroke:none;stroke-width:1.10234451"
         x="153.0752"
         y="399.99673"
         id="text1099"><tspan
           sodipodi:role="line"
           id="tspan1097"
           x="153.0752"
           y="399.99673"
           style="font-style:normal;font-variant:normal;font-weight:normal;font-stretch:normal;font-size:11.75834084px;font-family:Consolas;-inkscape-font-specification:Consolas;stroke-width:1.10234451">0x1004</tspan></text>
      <text
         xml:space="preserve"
         style="font-style:normal;font-weight:normal;font-size:18.21675682px;line-height:1.25;font-family:sans-serif;letter-spacing:0px;word-spacing:0px;fill:#000000;fill-opacity:1;stroke:none;stroke-width:0.97589767"
         x="506.40671"
         y="355.64392"
         id="text1103"><tspan
           sodipodi:role="line"
           id="tspan1101"
           x="506.40671"
           y="355.64392"
           style="font-style:normal;font-variant:normal;font-weight:normal;font-stretch:normal;font-size:13.01196861px;font-family:Consolas;-inkscape-font-specification:Consolas;stroke-width:0.97589767">41</tspan></text>
      <path
         style="fill:none;stroke:#000000;stroke-width:1.10234451px;stroke-linecap:butt;stroke-linejoin:miter;stroke-opacity:1;marker-end:url(#TriangleOutM)"
         d="M 172.86534,389.00135 V 368.13554"
         id="path1205"
         inkscape:connector-curvature="0" />
      <text
         xml:space="preserve"
         style="font-style:normal;font-weight:normal;font-size:20.57709694px;line-height:1.25;font-family:sans-serif;letter-spacing:0px;word-spacing:0px;fill:#000000;fill-opacity:1;stroke:none;stroke-width:1.10234451"
         x="237.6122"
         y="399.99673"
         id="text1099-5"><tspan
           sodipodi:role="line"
           id="tspan1097-4"
           x="237.6122"
           y="399.99673"
           style="font-style:normal;font-variant:normal;font-weight:normal;font-stretch:normal;font-size:11.75834084px;font-family:Consolas;-inkscape-font-specification:Consolas;stroke-width:1.10234451">0x1008</tspan></text>
      <path
         style="fill:none;stroke:#000000;stroke-width:1.10234451px;stroke-linecap:butt;stroke-linejoin:miter;stroke-opacity:1;marker-end:url(#TriangleOutM-2)"
         d="M 257.40231,389.00134 V 368.13553"
         id="path1205-2"
         inkscape:connector-curvature="0" />
      <text
         xml:space="preserve"
         style="font-style:normal;font-weight:normal;font-size:20.57709694px;line-height:1.25;font-family:sans-serif;letter-spacing:0px;word-spacing:0px;fill:#000000;fill-opacity:1;stroke:none;stroke-width:1.10234451"
         x="322.84702"
         y="399.99673"
         id="text1099-7"><tspan
           sodipodi:role="line"
           id="tspan1097-6"
           x="322.84702"
           y="399.99673"
           style="font-style:normal;font-variant:normal;font-weight:normal;font-stretch:normal;font-size:11.75834084px;font-family:Consolas;-inkscape-font-specification:Consolas;stroke-width:1.10234451">0x100c</tspan></text>
      <path
         style="fill:none;stroke:#000000;stroke-width:1.10234451px;stroke-linecap:butt;stroke-linejoin:miter;stroke-opacity:1;marker-end:url(#TriangleOutM-8)"
         d="M 342.63717,389.00134 V 368.13553"
         id="path1205-1"
         inkscape:connector-curvature="0" />
      <text
         xml:space="preserve"
         style="font-style:normal;font-weight:normal;font-size:20.57709694px;line-height:1.25;font-family:sans-serif;letter-spacing:0px;word-spacing:0px;fill:#000000;fill-opacity:1;stroke:none;stroke-width:1.10234451"
         x="407.9256"
         y="399.99673"
         id="text1099-7-2"><tspan
           sodipodi:role="line"
           id="tspan1097-6-2"
           x="407.9256"
           y="399.99673"
           style="font-style:normal;font-variant:normal;font-weight:normal;font-stretch:normal;font-size:11.75834084px;font-family:Consolas;-inkscape-font-specification:Consolas;stroke-width:1.10234451">0x1010</tspan></text>
      <path
         style="fill:none;stroke:#000000;stroke-width:1.10234451px;stroke-linecap:butt;stroke-linejoin:miter;stroke-opacity:1;marker-end:url(#TriangleOutM-8-9)"
         d="M 427.71571,389.00134 V 368.13553"
         id="path1205-1-1"
         inkscape:connector-curvature="0" />
      <text
         xml:space="preserve"
         style="font-style:normal;font-weight:normal;font-size:20.57709694px;line-height:1.25;font-family:sans-serif;letter-spacing:0px;word-spacing:0px;fill:#000000;fill-opacity:1;stroke:none;stroke-width:1.10234451"
         x="494.39935"
         y="399.99673"
         id="text1099-7-2-1"><tspan
           sodipodi:role="line"
           id="tspan1097-6-2-3"
           x="494.39935"
           y="399.99673"
           style="font-style:normal;font-variant:normal;font-weight:normal;font-stretch:normal;font-size:11.75834084px;font-family:Consolas;-inkscape-font-specification:Consolas;stroke-width:1.10234451">0x1014</tspan></text>
      <path
         style="fill:none;stroke:#000000;stroke-width:1.10234451px;stroke-linecap:butt;stroke-linejoin:miter;stroke-opacity:1;marker-end:url(#TriangleOutM-8-9-0)"
         d="M 514.1895,389.00133 V 368.13552"
         id="path1205-1-1-5"
         inkscape:connector-curvature="0" />
      <text
         xml:space="preserve"
         style="font-style:normal;font-weight:normal;font-size:20.57709694px;line-height:1.25;font-family:sans-serif;letter-spacing:0px;word-spacing:0px;fill:#000000;fill-opacity:1;stroke:none;stroke-width:1.10234451"
         x="579.0437"
         y="399.99673"
         id="text1099-7-2-9"><tspan
           sodipodi:role="line"
           id="tspan1097-6-2-0"
           x="579.0437"
           y="399.99673"
           style="font-style:normal;font-variant:normal;font-weight:normal;font-stretch:normal;font-size:11.75834084px;font-family:Consolas;-inkscape-font-specification:Consolas;stroke-width:1.10234451">0x1018</tspan></text>
      <path
         style="fill:none;stroke:#000000;stroke-width:1.10234451px;stroke-linecap:butt;stroke-linejoin:miter;stroke-opacity:1;marker-end:url(#TriangleOutM-8-9-02)"
         d="M 598.8338,389.00133 V 368.13552"
         id="path1205-1-1-4"
         inkscape:connector-curvature="0" />
      <text
         xml:space="preserve"
         style="font-style:normal;font-weight:normal;font-size:20.57709694px;line-height:1.25;font-family:sans-serif;letter-spacing:0px;word-spacing:0px;fill:#000000;fill-opacity:1;stroke:none;stroke-width:1.10234451"
         x="664.08167"
         y="399.99673"
         id="text1099-7-2-7"><tspan
           sodipodi:role="line"
           id="tspan1097-6-2-38"
           x="664.08167"
           y="399.99673"
           style="font-style:normal;font-variant:normal;font-weight:normal;font-stretch:normal;font-size:11.75834084px;font-family:Consolas;-inkscape-font-specification:Consolas;stroke-width:1.10234451">0x101c</tspan></text>
      <path
         style="fill:none;stroke:#000000;stroke-width:1.10234451px;stroke-linecap:butt;stroke-linejoin:miter;stroke-opacity:1;marker-end:url(#TriangleOutM-8-9-08)"
         d="M 683.87181,389.00134 V 368.13553"
         id="path1205-1-1-2"
         inkscape:connector-curvature="0" />
      <text
         xml:space="preserve"
         style="font-style:normal;font-weight:normal;font-size:18.21675682px;line-height:1.25;font-family:sans-serif;letter-spacing:0px;word-spacing:0px;fill:#000000;fill-opacity:1;stroke:none;stroke-width:0.97589767"
         x="250.73029"
         y="355.56195"
         id="text1103-5"><tspan
           sodipodi:role="line"
           id="tspan1101-3"
           x="250.73029"
           y="355.56195"
           style="font-style:normal;font-variant:normal;font-weight:normal;font-stretch:normal;font-size:13.01196861px;font-family:Consolas;-inkscape-font-specification:Consolas;stroke-width:0.97589767">00</tspan></text>
      <text
         xml:space="preserve"
         style="font-style:normal;font-weight:normal;font-size:18.21675682px;line-height:1.25;font-family:sans-serif;letter-spacing:0px;word-spacing:0px;fill:#000000;fill-opacity:1;stroke:none;stroke-width:0.97589767"
         x="272.33426"
         y="355.75882"
         id="text1103-55"><tspan
           sodipodi:role="line"
           id="tspan1101-12"
           x="272.33426"
           y="355.75882"
           style="font-style:normal;font-variant:normal;font-weight:normal;font-stretch:normal;font-size:13.01196861px;font-family:Consolas;-inkscape-font-specification:Consolas;stroke-width:0.97589767">00</tspan></text>
      <text
         xml:space="preserve"
         style="font-style:normal;font-weight:normal;font-size:18.21675682px;line-height:1.25;font-family:sans-serif;letter-spacing:0px;word-spacing:0px;fill:#000000;fill-opacity:1;stroke:none;stroke-width:0.97589767"
         x="293.49533"
         y="355.85727"
         id="text1103-6"><tspan
           sodipodi:role="line"
           id="tspan1101-65"
           x="293.49533"
           y="355.85727"
           style="font-style:normal;font-variant:normal;font-weight:normal;font-stretch:normal;font-size:13.01196861px;font-family:Consolas;-inkscape-font-specification:Consolas;stroke-width:0.97589767">00</tspan></text>
      <text
         xml:space="preserve"
         style="font-style:normal;font-weight:normal;font-size:18.21675682px;line-height:1.25;font-family:sans-serif;letter-spacing:0px;word-spacing:0px;fill:#000000;fill-opacity:1;stroke:none;stroke-width:0.97589767"
         x="315.05011"
         y="355.90646"
         id="text1103-2"><tspan
           sodipodi:role="line"
           id="tspan1101-4"
           x="315.05011"
           y="355.90646"
           style="font-style:normal;font-variant:normal;font-weight:normal;font-stretch:normal;font-size:13.01196861px;font-family:Consolas;-inkscape-font-specification:Consolas;stroke-width:0.97589767">00</tspan></text>
      <text
         xml:space="preserve"
         style="font-style:normal;font-weight:normal;font-size:18.21675682px;line-height:1.25;font-family:sans-serif;letter-spacing:0px;word-spacing:0px;fill:#000000;fill-opacity:1;stroke:none;stroke-width:0.97589767"
         x="336.3588"
         y="355.90646"
         id="text1103-69"><tspan
           sodipodi:role="line"
           id="tspan1101-57"
           x="336.3588"
           y="355.90646"
           style="font-style:normal;font-variant:normal;font-weight:normal;font-stretch:normal;font-size:13.01196861px;font-family:Consolas;-inkscape-font-specification:Consolas;stroke-width:0.97589767">00</tspan></text>
      <text
         xml:space="preserve"
         style="font-style:normal;font-weight:normal;font-size:18.21675682px;line-height:1.25;font-family:sans-serif;letter-spacing:0px;word-spacing:0px;fill:#000000;fill-opacity:1;stroke:none;stroke-width:0.97589767"
         x="357.42148"
         y="355.90646"
         id="text1103-59"><tspan
           sodipodi:role="line"
           id="tspan1101-46"
           x="357.42148"
           y="355.90646"
           style="font-style:normal;font-variant:normal;font-weight:normal;font-stretch:normal;font-size:13.01196861px;font-family:Consolas;-inkscape-font-specification:Consolas;stroke-width:0.97589767">00</tspan></text>
      <text
         xml:space="preserve"
         style="font-style:normal;font-weight:normal;font-size:18.21675682px;line-height:1.25;font-family:sans-serif;letter-spacing:0px;word-spacing:0px;fill:#000000;fill-opacity:1;stroke:none;stroke-width:0.97589767"
         x="378.94632"
         y="355.70959"
         id="text1103-57"><tspan
           sodipodi:role="line"
           id="tspan1101-2"
           x="378.94632"
           y="355.70959"
           style="font-style:normal;font-variant:normal;font-weight:normal;font-stretch:normal;font-size:13.01196861px;font-family:Consolas;-inkscape-font-specification:Consolas;stroke-width:0.97589767">10</tspan></text>
      <text
         xml:space="preserve"
         style="font-style:normal;font-weight:normal;font-size:18.21675682px;line-height:1.25;font-family:sans-serif;letter-spacing:0px;word-spacing:0px;fill:#000000;fill-opacity:1;stroke:none;stroke-width:0.97589767"
         x="400.17102"
         y="355.4118"
         id="text1103-7"><tspan
           sodipodi:role="line"
           id="tspan1101-9"
           x="400.17102"
           y="355.4118"
           style="font-style:normal;font-variant:normal;font-weight:normal;font-stretch:normal;font-size:13.01196861px;font-family:Consolas;-inkscape-font-specification:Consolas;stroke-width:0.97589767">14</tspan></text>
    </g>
  </g>
</svg>
